<svg width="394" height="47" viewBox="0 0 394 47" fill="none" xmlns="http://www.w3.org/2000/svg">
<path d="M10.892 37L0.903409 2.09091H8.96591L14.7443 26.3466H15.0341L21.4091 2.09091H28.3125L34.6705 26.3977H34.9773L40.7557 2.09091H48.8182L38.8295 37H31.6364L24.9886 14.1761H24.7159L18.0852 37H10.892ZM59.8935 21.8636V37H52.6321V2.09091H59.6889V15.4375H59.9957C60.5866 13.892 61.5412 12.6818 62.8594 11.8068C64.1776 10.9205 65.831 10.4773 67.8196 10.4773C69.6378 10.4773 71.223 10.875 72.5753 11.6705C73.9389 12.4545 74.9957 13.5852 75.7457 15.0625C76.5071 16.5284 76.8821 18.2841 76.8707 20.3295V37H69.6094V21.625C69.6207 20.0114 69.2116 18.7557 68.3821 17.858C67.5639 16.9602 66.4162 16.5114 64.9389 16.5114C63.9503 16.5114 63.0753 16.7216 62.3139 17.142C61.5639 17.5625 60.973 18.1761 60.5412 18.983C60.1207 19.7784 59.9048 20.7386 59.8935 21.8636ZM90.0511 37.4943C88.3807 37.4943 86.892 37.2045 85.5852 36.625C84.2784 36.0341 83.2443 35.1648 82.483 34.017C81.733 32.858 81.358 31.4148 81.358 29.6875C81.358 28.233 81.625 27.0114 82.1591 26.0227C82.6932 25.0341 83.4205 24.2386 84.3409 23.6364C85.2614 23.0341 86.3068 22.5795 87.4773 22.2727C88.6591 21.9659 89.8977 21.75 91.1932 21.625C92.7159 21.4659 93.9432 21.3182 94.875 21.1818C95.8068 21.0341 96.483 20.8182 96.9034 20.5341C97.3239 20.25 97.5341 19.8295 97.5341 19.2727V19.1705C97.5341 18.0909 97.1932 17.2557 96.5114 16.6648C95.8409 16.0739 94.8864 15.7784 93.6477 15.7784C92.3409 15.7784 91.3011 16.0682 90.5284 16.6477C89.7557 17.2159 89.2443 17.9318 88.9943 18.7955L82.2784 18.25C82.6193 16.6591 83.2898 15.2841 84.2898 14.125C85.2898 12.9545 86.5795 12.0568 88.1591 11.4318C89.75 10.7955 91.5909 10.4773 93.6818 10.4773C95.1364 10.4773 96.5284 10.6477 97.858 10.9886C99.1989 11.3295 100.386 11.858 101.42 12.5739C102.466 13.2898 103.29 14.2102 103.892 15.3352C104.494 16.4489 104.795 17.7841 104.795 19.3409V37H97.9091V33.3693H97.7045C97.2841 34.1875 96.7216 34.9091 96.017 35.5341C95.3125 36.1477 94.4659 36.6307 93.4773 36.983C92.4886 37.3239 91.3466 37.4943 90.0511 37.4943ZM92.1307 32.483C93.1989 32.483 94.142 32.2727 94.9602 31.8523C95.7784 31.4205 96.4205 30.8409 96.8864 30.1136C97.3523 29.3864 97.5852 28.5625 97.5852 27.642V24.8636C97.358 25.0114 97.0455 25.1477 96.6477 25.2727C96.2614 25.3864 95.8239 25.4943 95.3352 25.5966C94.8466 25.6875 94.358 25.7727 93.8693 25.8523C93.3807 25.9205 92.9375 25.983 92.5398 26.0398C91.6875 26.1648 90.9432 26.3636 90.3068 26.6364C89.6705 26.9091 89.1761 27.2784 88.8239 27.7443C88.4716 28.1989 88.2955 28.767 88.2955 29.4489C88.2955 30.4375 88.6534 31.1932 89.3693 31.7159C90.0966 32.2273 91.017 32.483 92.1307 32.483ZM124.355 10.8182V16.2727H108.588V10.8182H124.355ZM112.168 4.54545H119.429V28.9545C119.429 29.625 119.531 30.1477 119.736 30.5227C119.94 30.8864 120.224 31.142 120.588 31.2898C120.963 31.4375 121.395 31.5114 121.884 31.5114C122.224 31.5114 122.565 31.483 122.906 31.4261C123.247 31.358 123.509 31.3068 123.69 31.2727L124.832 36.6761C124.469 36.7898 123.957 36.9205 123.298 37.0682C122.639 37.2273 121.838 37.3239 120.895 37.358C119.145 37.4261 117.611 37.1932 116.293 36.6591C114.986 36.125 113.969 35.2955 113.241 34.1705C112.514 33.0455 112.156 31.625 112.168 29.9091V4.54545ZM150.541 18.2841L143.893 18.6932C143.78 18.125 143.536 17.6136 143.161 17.1591C142.786 16.6932 142.291 16.3239 141.678 16.0511C141.075 15.767 140.354 15.625 139.513 15.625C138.388 15.625 137.439 15.8636 136.666 16.3409C135.893 16.8068 135.507 17.4318 135.507 18.2159C135.507 18.8409 135.757 19.3693 136.257 19.8011C136.757 20.233 137.615 20.5795 138.831 20.8409L143.57 21.7955C146.115 22.3182 148.013 23.1591 149.263 24.3182C150.513 25.4773 151.138 27 151.138 28.8864C151.138 30.6023 150.632 32.108 149.621 33.4034C148.621 34.6989 147.246 35.7102 145.496 36.4375C143.757 37.1534 141.751 37.5114 139.479 37.5114C136.013 37.5114 133.251 36.7898 131.195 35.3466C129.149 33.892 127.95 31.9148 127.598 29.4148L134.74 29.0398C134.956 30.0966 135.479 30.9034 136.308 31.4602C137.138 32.0057 138.2 32.2784 139.496 32.2784C140.768 32.2784 141.791 32.0341 142.564 31.5455C143.348 31.0455 143.746 30.4034 143.757 29.6193C143.746 28.9602 143.467 28.4205 142.922 28C142.376 27.5682 141.536 27.2386 140.399 27.0114L135.865 26.108C133.308 25.5966 131.405 24.7102 130.155 23.4489C128.916 22.1875 128.297 20.5795 128.297 18.625C128.297 16.9432 128.751 15.4943 129.661 14.2784C130.581 13.0625 131.871 12.125 133.53 11.4659C135.2 10.8068 137.155 10.4773 139.393 10.4773C142.7 10.4773 145.303 11.1761 147.2 12.5739C149.109 13.9716 150.223 15.875 150.541 18.2841ZM163.176 37.4943C161.506 37.4943 160.017 37.2045 158.71 36.625C157.403 36.0341 156.369 35.1648 155.608 34.017C154.858 32.858 154.483 31.4148 154.483 29.6875C154.483 28.233 154.75 27.0114 155.284 26.0227C155.818 25.0341 156.545 24.2386 157.466 23.6364C158.386 23.0341 159.432 22.5795 160.602 22.2727C161.784 21.9659 163.023 21.75 164.318 21.625C165.841 21.4659 167.068 21.3182 168 21.1818C168.932 21.0341 169.608 20.8182 170.028 20.5341C170.449 20.25 170.659 19.8295 170.659 19.2727V19.1705C170.659 18.0909 170.318 17.2557 169.636 16.6648C168.966 16.0739 168.011 15.7784 166.773 15.7784C165.466 15.7784 164.426 16.0682 163.653 16.6477C162.881 17.2159 162.369 17.9318 162.119 18.7955L155.403 18.25C155.744 16.6591 156.415 15.2841 157.415 14.125C158.415 12.9545 159.705 12.0568 161.284 11.4318C162.875 10.7955 164.716 10.4773 166.807 10.4773C168.261 10.4773 169.653 10.6477 170.983 10.9886C172.324 11.3295 173.511 11.858 174.545 12.5739C175.591 13.2898 176.415 14.2102 177.017 15.3352C177.619 16.4489 177.92 17.7841 177.92 19.3409V37H171.034V33.3693H170.83C170.409 34.1875 169.847 34.9091 169.142 35.5341C168.438 36.1477 167.591 36.6307 166.602 36.983C165.614 37.3239 164.472 37.4943 163.176 37.4943ZM165.256 32.483C166.324 32.483 167.267 32.2727 168.085 31.8523C168.903 31.4205 169.545 30.8409 170.011 30.1136C170.477 29.3864 170.71 28.5625 170.71 27.642V24.8636C170.483 25.0114 170.17 25.1477 169.773 25.2727C169.386 25.3864 168.949 25.4943 168.46 25.5966C167.972 25.6875 167.483 25.7727 166.994 25.8523C166.506 25.9205 166.062 25.983 165.665 26.0398C164.813 26.1648 164.068 26.3636 163.432 26.6364C162.795 26.9091 162.301 27.2784 161.949 27.7443C161.597 28.1989 161.42 28.767 161.42 29.4489C161.42 30.4375 161.778 31.1932 162.494 31.7159C163.222 32.2273 164.142 32.483 165.256 32.483ZM183.554 46.8182V10.8182H190.713V15.2159H191.037C191.355 14.5114 191.815 13.7955 192.418 13.0682C193.031 12.3295 193.827 11.7159 194.804 11.2273C195.793 10.7273 197.02 10.4773 198.486 10.4773C200.395 10.4773 202.156 10.9773 203.77 11.9773C205.384 12.9659 206.673 14.4602 207.639 16.4602C208.605 18.4489 209.088 20.9432 209.088 23.9432C209.088 26.8636 208.616 29.3295 207.673 31.3409C206.741 33.3409 205.469 34.858 203.855 35.892C202.253 36.9148 200.457 37.4261 198.469 37.4261C197.06 37.4261 195.861 37.1932 194.872 36.7273C193.895 36.2614 193.094 35.6761 192.469 34.9716C191.844 34.2557 191.366 33.5341 191.037 32.8068H190.815V46.8182H183.554ZM190.662 23.9091C190.662 25.4659 190.878 26.8239 191.31 27.983C191.741 29.142 192.366 30.0455 193.185 30.6932C194.003 31.3295 194.997 31.6477 196.168 31.6477C197.349 31.6477 198.349 31.3239 199.168 30.6761C199.986 30.017 200.605 29.108 201.026 27.9489C201.457 26.7784 201.673 25.4318 201.673 23.9091C201.673 22.3977 201.463 21.0682 201.043 19.9205C200.622 18.7727 200.003 17.875 199.185 17.2273C198.366 16.5795 197.361 16.2557 196.168 16.2557C194.986 16.2557 193.986 16.5682 193.168 17.1932C192.361 17.8182 191.741 18.7045 191.31 19.8523C190.878 21 190.662 22.3523 190.662 23.9091ZM213.929 46.8182V10.8182H221.088V15.2159H221.412C221.73 14.5114 222.19 13.7955 222.793 13.0682C223.406 12.3295 224.202 11.7159 225.179 11.2273C226.168 10.7273 227.395 10.4773 228.861 10.4773C230.77 10.4773 232.531 10.9773 234.145 11.9773C235.759 12.9659 237.048 14.4602 238.014 16.4602C238.98 18.4489 239.463 20.9432 239.463 23.9432C239.463 26.8636 238.991 29.3295 238.048 31.3409C237.116 33.3409 235.844 34.858 234.23 35.892C232.628 36.9148 230.832 37.4261 228.844 37.4261C227.435 37.4261 226.236 37.1932 225.247 36.7273C224.27 36.2614 223.469 35.6761 222.844 34.9716C222.219 34.2557 221.741 33.5341 221.412 32.8068H221.19V46.8182H213.929ZM221.037 23.9091C221.037 25.4659 221.253 26.8239 221.685 27.983C222.116 29.142 222.741 30.0455 223.56 30.6932C224.378 31.3295 225.372 31.6477 226.543 31.6477C227.724 31.6477 228.724 31.3239 229.543 30.6761C230.361 30.017 230.98 29.108 231.401 27.9489C231.832 26.7784 232.048 25.4318 232.048 23.9091C232.048 22.3977 231.838 21.0682 231.418 19.9205C230.997 18.7727 230.378 17.875 229.56 17.2273C228.741 16.5795 227.736 16.2557 226.543 16.2557C225.361 16.2557 224.361 16.5682 223.543 17.1932C222.736 17.8182 222.116 18.7045 221.685 19.8523C221.253 21 221.037 22.3523 221.037 23.9091ZM267.925 37H255.55V2.09091H268.027C271.538 2.09091 274.561 2.78977 277.095 4.1875C279.629 5.57386 281.578 7.56818 282.942 10.1705C284.317 12.7727 285.004 15.8864 285.004 19.5114C285.004 23.1477 284.317 26.2727 282.942 28.8864C281.578 31.5 279.618 33.5057 277.061 34.9034C274.516 36.3011 271.47 37 267.925 37ZM262.93 30.6761H267.618C269.8 30.6761 271.635 30.2898 273.124 29.517C274.624 28.733 275.749 27.5227 276.499 25.8864C277.26 24.2386 277.641 22.1136 277.641 19.5114C277.641 16.9318 277.26 14.8239 276.499 13.1875C275.749 11.5511 274.629 10.3466 273.141 9.57386C271.652 8.80114 269.817 8.41477 267.635 8.41477H262.93V30.6761ZM290.335 37V10.8182H297.597V37H290.335ZM293.983 7.44318C292.903 7.44318 291.977 7.08523 291.205 6.36932C290.443 5.64204 290.062 4.77273 290.062 3.76136C290.062 2.76136 290.443 1.90341 291.205 1.1875C291.977 0.460226 292.903 0.0965891 293.983 0.0965891C295.063 0.0965891 295.983 0.460226 296.744 1.1875C297.517 1.90341 297.903 2.76136 297.903 3.76136C297.903 4.77273 297.517 5.64204 296.744 6.36932C295.983 7.08523 295.063 7.44318 293.983 7.44318ZM303.413 37V10.8182H310.453V15.3864H310.726C311.203 13.7614 312.004 12.5341 313.129 11.7045C314.254 10.8636 315.55 10.4432 317.016 10.4432C317.379 10.4432 317.771 10.4659 318.192 10.5114C318.612 10.5568 318.982 10.6193 319.3 10.6989V17.142C318.959 17.0398 318.487 16.9489 317.885 16.8693C317.283 16.7898 316.732 16.75 316.232 16.75C315.163 16.75 314.209 16.983 313.368 17.4489C312.538 17.9034 311.879 18.5398 311.391 19.358C310.913 20.1761 310.675 21.1193 310.675 22.1875V37H303.413ZM333.767 37.5114C331.074 37.5114 328.756 36.9659 326.812 35.875C324.881 34.7727 323.392 33.2159 322.347 31.2045C321.301 29.1818 320.778 26.7898 320.778 24.0284C320.778 21.3352 321.301 18.9716 322.347 16.9375C323.392 14.9034 324.864 13.3182 326.761 12.1818C328.67 11.0455 330.909 10.4773 333.477 10.4773C335.205 10.4773 336.813 10.7557 338.301 11.3125C339.801 11.858 341.108 12.6818 342.222 13.7841C343.347 14.8864 344.222 16.2727 344.847 17.9432C345.472 19.6023 345.784 21.5455 345.784 23.7727V25.767H323.676V21.267H338.949C338.949 20.2216 338.722 19.2955 338.267 18.4886C337.813 17.6818 337.182 17.0511 336.375 16.5966C335.58 16.1307 334.653 15.8977 333.597 15.8977C332.494 15.8977 331.517 16.1534 330.665 16.6648C329.824 17.1648 329.165 17.8409 328.688 18.6932C328.21 19.5341 327.966 20.4716 327.955 21.5057V25.7841C327.955 27.0795 328.193 28.1989 328.67 29.142C329.159 30.0852 329.847 30.8125 330.733 31.3239C331.619 31.8352 332.67 32.0909 333.886 32.0909C334.693 32.0909 335.432 31.9773 336.102 31.75C336.773 31.5227 337.347 31.1818 337.824 30.7273C338.301 30.2727 338.665 29.7159 338.915 29.0568L345.631 29.5C345.29 31.1136 344.591 32.5227 343.534 33.7273C342.489 34.9205 341.136 35.8523 339.477 36.5227C337.83 37.1818 335.926 37.5114 333.767 37.5114ZM362.352 37.5114C359.67 37.5114 357.364 36.9432 355.432 35.8068C353.511 34.6591 352.034 33.0682 351 31.0341C349.977 29 349.466 26.6591 349.466 24.0114C349.466 21.3295 349.983 18.9773 351.017 16.9545C352.063 14.9205 353.545 13.3352 355.466 12.1989C357.386 11.0511 359.67 10.4773 362.318 10.4773C364.602 10.4773 366.602 10.892 368.318 11.7216C370.034 12.5511 371.392 13.7159 372.392 15.2159C373.392 16.7159 373.943 18.4773 374.045 20.5H367.193C367 19.1932 366.489 18.142 365.659 17.3466C364.841 16.5398 363.767 16.1364 362.438 16.1364C361.312 16.1364 360.33 16.4432 359.489 17.0568C358.659 17.6591 358.011 18.5398 357.545 19.6989C357.08 20.858 356.847 22.2614 356.847 23.9091C356.847 25.5795 357.074 27 357.528 28.1705C357.994 29.3409 358.648 30.233 359.489 30.8466C360.33 31.4602 361.312 31.767 362.438 31.767C363.267 31.767 364.011 31.5966 364.67 31.2557C365.341 30.9148 365.892 30.4205 366.324 29.7727C366.767 29.1136 367.057 28.3239 367.193 27.4034H374.045C373.932 29.4034 373.386 31.1648 372.409 32.6875C371.443 34.1989 370.108 35.3807 368.403 36.233C366.699 37.0852 364.682 37.5114 362.352 37.5114ZM392.621 10.8182V16.2727H376.854V10.8182H392.621ZM380.433 4.54545H387.695V28.9545C387.695 29.625 387.797 30.1477 388.001 30.5227C388.206 30.8864 388.49 31.142 388.854 31.2898C389.229 31.4375 389.661 31.5114 390.149 31.5114C390.49 31.5114 390.831 31.483 391.172 31.4261C391.513 31.358 391.774 31.3068 391.956 31.2727L393.098 36.6761C392.734 36.7898 392.223 36.9205 391.564 37.0682C390.905 37.2273 390.104 37.3239 389.161 37.358C387.411 37.4261 385.876 37.1932 384.558 36.6591C383.251 36.125 382.234 35.2955 381.507 34.1705C380.78 33.0455 380.422 31.625 380.433 29.9091V4.54545Z" fill="#60BE92"/>
</svg>
